<svg xmlns="http://www.w3.org/2000/svg" width="256" height="256" viewBox="0 0 100 100"><rect width="100" height="100" rx="0" fill="#ffffff"></rect><path fill="#000000" d="M68.50 28.63L53.64 28.63L53.64 76.95Q53.20 77.14 52.25 77.36Q51.30 77.59 50.31 77.59L50.31 77.59Q46.36 77.59 46.36 74.26L46.36 74.26L46.36 28.63L29.52 28.63Q29.25 28.18 28.98 27.41Q28.71 26.65 28.71 25.66L28.71 25.66Q28.71 24.13 29.43 23.27Q30.16 22.42 31.50 22.42L31.50 22.42L70.47 22.42Q70.75 22.87 71.02 23.63Q71.28 24.40 71.28 25.30L71.28 25.30Q71.28 26.83 70.56 27.73Q69.84 28.63 68.50 28.63L68.50 28.63Z"></path></svg>